<?xml version="1.0" standalone="no"?>
<!DOCTYPE svg PUBLIC "-//W3C//DTD SVG 20010904//EN"
 "http://www.w3.org/TR/2001/REC-SVG-20010904/DTD/svg10.dtd">
<svg version="1.0" xmlns="http://www.w3.org/2000/svg"
 width="260.000000pt" height="260.000000pt" viewBox="0 0 260.000000 260.000000"
 preserveAspectRatio="xMidYMid meet">
<metadata>
Created by potrace 1.11, written by Peter Selinger 2001-2013
</metadata>
<g transform="translate(0.000000,260.000000) scale(0.100000,-0.100000)"
fill="#000000" stroke="none">
<path d="M714 1613 c-220 -216 -401 -393 -404 -393 -3 0 -5 174 -5 387 l0 388
-73 3 -72 3 0 -686 0 -686 72 3 73 3 3 212 2 211 136 131 136 130 181 -222
c100 -123 227 -278 282 -345 l100 -122 78 0 c44 0 77 4 75 9 -1 5 -136 170
-298 367 -162 197 -301 366 -309 377 -13 18 8 41 284 317 l298 298 -80 4 -80
3 -399 -392z"/>
<path d="M1973 2003 l-483 -3 0 -685 0 -685 495 0 495 0 0 60 0 60 -420 0
-420 0 0 260 0 260 358 2 357 3 3 58 3 57 -361 0 -360 0 0 245 0 245 410 0
410 0 0 65 c0 36 -1 64 -2 63 -2 -2 -220 -4 -485 -5z"/>
</g>
</svg>
